<?xml version="1.0" standalone="no"?>
<!DOCTYPE svg PUBLIC "-//W3C//DTD SVG 20010904//EN"
 "http://www.w3.org/TR/2001/REC-SVG-20010904/DTD/svg10.dtd">
<svg version="1.0" xmlns="http://www.w3.org/2000/svg"
 width="250.000000pt" height="250.000000pt" viewBox="0 0 250.000000 250.000000"
 preserveAspectRatio="xMidYMid meet">

<g transform="translate(0.000000,250.000000) scale(0.100000,-0.100000)"
fill="#000000" stroke="none">
<path d="M880 1446 l0 -126 93 0 c91 0 92 0 93 25 2 24 0 25 -57 25 l-59 0 0
95 c0 87 -2 95 -19 95 -11 0 -26 3 -35 6 -14 5 -16 -9 -16 -120z"/>
<path d="M1110 1443 l0 -123 30 0 c29 0 29 1 32 62 l3 61 33 -52 c18 -29 38
-51 44 -49 7 3 27 29 45 59 l33 54 0 -67 0 -68 30 0 30 0 0 124 0 125 -27 -2
c-22 -2 -34 -15 -64 -67 -21 -36 -42 -66 -47 -68 -5 -1 -28 28 -50 66 -33 56
-45 68 -66 68 l-26 0 0 -123z"/>
<path d="M1500 1563 c-28 -10 -60 -46 -60 -68 0 -35 22 -55 80 -74 70 -23 81
-51 20 -51 -23 0 -50 5 -60 10 -15 8 -21 6 -31 -11 -15 -28 -1 -40 53 -48 57
-9 109 3 130 29 39 49 14 92 -69 116 -82 24 -65 69 18 47 34 -9 38 -8 48 14
10 21 8 25 -15 33 -27 11 -89 12 -114 3z"/>
<path d="M1871 1156 c-11 -27 -49 -40 -68 -24 -21 17 -51 -15 -34 -35 15 -19
-2 -67 -24 -67 -22 0 -19 -38 4 -45 23 -7 36 -52 21 -70 -14 -17 16 -43 31
-28 16 16 69 -7 69 -29 0 -13 8 -18 25 -18 17 0 25 6 25 18 0 23 41 42 62 28
24 -14 51 10 37 32 -13 21 5 73 23 70 7 -2 14 7 16 20 3 16 -2 22 -17 22 -23
0 -40 55 -22 73 15 15 -19 39 -36 25 -18 -15 -53 0 -63 28 -12 31 -38 31 -49
0z m81 -96 c25 -26 29 -36 24 -63 -15 -73 -96 -97 -142 -43 -26 30 -30 53 -13
90 24 52 87 59 131 16z"/>
<path d="M1905 1020 c-17 -18 -20 -19 -36 -4 -24 22 -34 1 -13 -31 9 -14 19
-25 23 -25 13 0 71 66 65 73 -11 11 -20 8 -39 -13z"/>
<path d="M520 1138 c-96 -66 -90 -210 10 -267 47 -26 99 -27 149 -1 105 53
110 208 9 270 -47 28 -125 27 -168 -2z m160 -26 c58 -42 72 -119 33 -179 -48
-73 -177 -68 -219 9 -8 13 -13 43 -14 66 0 105 116 165 200 104z"/>
<path d="M570 1011 c0 -50 12 -57 52 -34 43 25 45 39 9 57 -49 26 -61 21 -61
-23z"/>
<path d="M1153 751 c-40 -14 -74 -29 -77 -32 -3 -3 35 -20 84 -37 82 -30 91
-31 122 -19 l33 14 -39 20 c-21 11 -34 23 -29 26 6 4 27 -5 48 -19 l38 -25 48
17 c27 10 46 21 42 24 -15 13 -155 60 -176 59 -12 0 -54 -13 -94 -28z"/>
<path d="M1120 621 c0 -45 2 -49 33 -62 17 -8 61 -14 97 -14 36 0 80 6 98 14
30 13 32 17 32 63 0 42 -3 49 -17 46 -14 -3 -18 -14 -18 -48 0 -36 -4 -45 -19
-48 -17 -4 -18 0 -12 37 7 44 3 47 -39 31 -19 -7 -38 -5 -78 10 -74 28 -77 27
-77 -29z"/>
</g>
</svg>
