<?xml version="1.0" standalone="no"?>
<!DOCTYPE svg PUBLIC "-//W3C//DTD SVG 20010904//EN"
 "http://www.w3.org/TR/2001/REC-SVG-20010904/DTD/svg10.dtd">
<svg version="1.0" xmlns="http://www.w3.org/2000/svg"
 width="800.000000pt" height="800.000000pt" viewBox="0 0 800.000000 800.000000"
 preserveAspectRatio="xMidYMid meet">

<g transform="translate(0.000000,800.000000) scale(0.100000,-0.100000)"
fill="#000000" stroke="none">
<path d="M3871 5948 c-26 -7 -31 -12 -20 -18 10 -7 8 -9 -8 -7 -12 0 -19 5
-17 9 3 4 -15 -1 -38 -12 -24 -11 -42 -25 -40 -31 2 -6 -4 -9 -11 -6 -8 3 -25
-1 -37 -10 -17 -12 -19 -17 -9 -24 11 -7 10 -9 -5 -9 -13 0 -16 -5 -12 -16 5
-14 4 -15 -8 -5 -11 10 -21 3 -51 -33 -20 -25 -34 -50 -30 -56 3 -5 0 -10 -8
-10 -22 0 -59 -129 -60 -212 -2 -79 19 -172 36 -161 6 4 7 1 2 -6 -12 -20 39
-104 102 -168 103 -106 295 -150 446 -103 101 31 223 124 243 185 4 10 13 25
21 33 11 11 11 17 2 28 -10 12 -9 13 4 8 25 -9 42 66 42 191 -1 98 -4 116 -27
167 -15 32 -31 63 -37 70 -53 66 -75 87 -84 81 -5 -3 -7 -1 -4 4 10 16 -93 79
-168 102 -71 22 -166 26 -224 9z m156 -4 c-3 -3 -12 -4 -19 -1 -8 3 -5 6 6 6
11 1 17 -2 13 -5z m36 -21 c-7 -2 -19 -2 -25 0 -7 3 -2 5 12 5 14 0 19 -2 13
-5z m123 -40 c-7 -7 -26 7 -26 19 0 6 6 6 15 -2 9 -7 13 -15 11 -17z"/>
<path d="M3185 5479 c-32 -11 -61 -23 -65 -27 -3 -4 -9 -7 -15 -8 -25 -1 -65
-17 -65 -26 0 -5 -4 -7 -8 -4 -12 7 -187 -82 -273 -140 -367 -244 -629 -612
-738 -1038 -12 -43 -28 -129 -37 -190 -22 -152 -15 -438 16 -581 49 -230 148
-466 272 -647 61 -89 202 -258 216 -258 4 0 36 29 71 64 l64 65 -70 74 c-275
295 -432 758 -394 1165 36 387 180 705 445 981 39 40 70 77 68 83 -1 5 2 7 7
4 5 -3 33 14 63 37 132 109 314 209 474 262 l81 27 -23 75 c-12 40 -24 80 -26
87 -2 11 -15 10 -63 -5z"/>
<path d="M4679 5263 c-9 -2 -36 -34 -59 -70 -36 -55 -40 -67 -28 -74 50 -28
192 -145 258 -214 112 -116 250 -318 301 -441 21 -51 22 -52 73 -58 28 -3 74
-6 103 -6 l52 0 -30 73 c-65 157 -190 363 -273 452 -18 19 -31 36 -29 38 8 9
-168 167 -179 161 -6 -4 -8 -3 -5 4 8 12 -84 92 -106 92 -8 0 -17 6 -20 14 -7
19 -37 34 -58 29z"/>
<path d="M3555 4794 c-309 -55 -569 -242 -714 -514 -24 -45 -39 -85 -35 -90 8
-7 151 -70 160 -70 2 0 11 16 19 36 49 118 209 292 333 361 36 20 104 50 151
66 76 26 103 30 231 34 148 4 158 3 329 -48 14 -4 85 146 76 162 -9 13 -129
48 -223 64 -104 18 -221 18 -327 -1z"/>
<path d="M4190 4633 c-84 -76 -15 -219 95 -199 44 9 95 66 95 107 0 37 -23 83
-52 103 -37 26 -103 21 -138 -11z"/>
<path d="M3570 3755 l0 -415 290 0 290 0 0 70 0 70 -210 0 -210 0 0 228 c-1
125 -2 279 -3 342 l-2 115 -77 3 -78 3 0 -416z"/>
<path d="M4588 4163 c-17 -4 -18 -32 -18 -414 l0 -409 80 0 80 0 2 296 3 297
67 -94 c161 -224 185 -254 204 -256 14 -2 50 40 149 174 l130 176 3 -296 2
-297 80 0 80 0 -2 413 -3 412 -86 3 -87 3 -93 -128 c-138 -191 -163 -223 -169
-223 -4 0 -64 78 -133 174 l-127 173 -72 1 c-40 0 -81 -2 -90 -5z"/>
<path d="M6121 4159 c-162 -28 -249 -122 -239 -259 9 -125 90 -187 288 -220
62 -11 127 -24 145 -30 97 -32 105 -147 12 -197 -24 -13 -55 -18 -122 -18
-105 0 -152 19 -207 84 l-32 39 -56 -30 c-30 -17 -58 -34 -63 -37 -4 -4 10
-32 31 -62 71 -102 189 -147 361 -136 188 11 295 93 308 234 7 83 -11 140 -61
189 -51 51 -118 77 -255 98 -57 9 -118 23 -137 31 -44 18 -68 56 -59 94 23
104 222 122 336 31 l37 -29 56 30 c31 17 56 35 56 41 0 25 -97 106 -150 125
-67 25 -176 35 -249 22z"/>
<path d="M2745 4020 c-3 -5 -14 -10 -23 -10 -18 -1 -60 -40 -84 -80 -57 -93 3
-231 112 -260 116 -31 230 55 230 174 0 80 -40 143 -109 172 -39 16 -117 19
-126 4z m152 -36 c-3 -3 -12 -4 -19 -1 -8 3 -5 6 6 6 11 1 17 -2 13 -5z"/>
<path d="M2832 3556 c-84 -24 -83 -17 -31 -143 67 -159 217 -340 363 -437 239
-158 517 -207 799 -142 76 18 137 41 137 53 0 4 -14 43 -32 86 -24 60 -36 76
-47 71 -133 -52 -363 -64 -504 -26 -256 70 -471 266 -562 515 -20 54 -19 54
-123 23z"/>
<path d="M4168 3127 c-34 -32 -42 -60 -28 -102 15 -44 44 -65 93 -65 53 0 97
43 97 95 0 81 -103 126 -162 72z"/>
<path d="M5070 3000 c-228 -381 -600 -640 -1060 -737 -131 -28 -459 -25 -597
5 -84 18 -257 73 -333 106 -11 5 -24 -14 -52 -76 -20 -46 -34 -86 -30 -90 15
-15 201 -80 292 -103 169 -42 238 -50 435 -50 292 0 494 45 755 167 283 132
535 352 713 623 57 86 132 224 125 230 -2 1 -46 6 -98 10 l-96 7 -54 -92z"/>
<path d="M2695 2612 c-48 -22 -102 -81 -111 -120 -3 -15 -7 -33 -10 -40 -8
-26 19 -113 43 -143 76 -90 219 -95 296 -10 61 68 72 147 30 229 -44 84 -162
124 -248 84z"/>
</g>
</svg>
